<svg width="20" height="21" viewBox="0 0 20 21" fill="none" xmlns="http://www.w3.org/2000/svg">
<path d="M17.2105 0.151247C17.2105 0.0350394 17.0842 -0.0378254 16.9831 0.0205923L15.5565 0.845351L14.6991 1.34222L14.3624 1.53631L11.7757 3.03068C11.7694 3.03445 11.765 3.03884 11.76 3.04261L11.6677 3.096C11.5665 3.15442 11.5665 3.30015 11.6677 3.35857L13.1143 4.1915L11.7946 6.4767L11.647 6.73298L11.5238 6.94718L11.1765 7.54643C10.6457 7.72608 10.368 7.27005 10.5521 6.95409L11.0697 6.05772H11.0709L11.1256 5.96099C11.5132 5.29201 11.2839 4.43585 10.6149 4.04953C10.3951 3.92202 10.1538 3.86172 9.9164 3.86172C9.43273 3.86172 8.96225 4.11235 8.70345 4.56147L6.6783 8.07157L6.44212 8.47798C5.94085 8.64821 5.67703 8.21667 5.85103 7.91641L6.22603 7.26502L6.51687 6.76251C6.90318 6.09227 6.6739 5.23736 6.00493 4.85105C5.78507 4.72354 5.54386 4.66324 5.30642 4.66324C4.82401 4.66324 4.35352 4.91387 4.09473 5.36299L1.18766 10.3989C0.801347 11.0678 1.03062 11.9227 1.6996 12.3103C1.91945 12.4378 2.16066 12.4981 2.3981 12.4981C2.88052 12.4981 3.351 12.2475 3.6098 11.7984L4.23292 10.718L4.66697 9.96606L5.35291 10.363L5.25931 10.5276C4.97225 11.1734 5.21911 11.9485 5.84475 12.3103C6.0646 12.4378 6.30581 12.4981 6.54325 12.4981C7.02567 12.4981 7.49615 12.2475 7.75495 11.7984L8.85923 9.88566L9.33662 9.05713L9.33976 9.05085L10.4861 9.72045L10.0628 9.47548L9.53072 10.3989C9.14441 11.0678 9.37243 11.9227 10.0414 12.3103C10.2625 12.4378 10.5025 12.4981 10.7399 12.4981C11.2236 12.4981 11.6941 12.2475 11.9529 11.7984L15.5383 5.58724L16.9906 6.42331C17.0917 6.48172 17.2174 6.40823 17.2174 6.29202L17.2105 0.151247Z" fill="#8066FF"/>
<path d="M17.2105 0.151247C17.2105 0.0350394 17.0842 -0.0378254 16.9831 0.0205923L15.5565 0.845351L14.6991 1.34222L14.3624 1.53631L11.7757 3.03068C11.7694 3.03445 11.765 3.03884 11.76 3.04261L11.6677 3.096C11.5665 3.15442 11.5665 3.30015 11.6677 3.35857L13.1143 4.1915L11.7946 6.4767L11.647 6.73298L11.5238 6.94718L11.1765 7.54643C10.6457 7.72608 10.368 7.27005 10.5521 6.95409L11.0697 6.05772H11.0709L11.1256 5.96099C11.5132 5.29201 11.2839 4.43585 10.6149 4.04953C10.3951 3.92202 10.1538 3.86172 9.9164 3.86172C9.43273 3.86172 8.96225 4.11235 8.70345 4.56147L6.6783 8.07157L6.44212 8.47798C5.94085 8.64821 5.67703 8.21667 5.85103 7.91641L6.22603 7.26502L6.51687 6.76251C6.90318 6.09227 6.6739 5.23736 6.00493 4.85105C5.78507 4.72354 5.54386 4.66324 5.30642 4.66324C4.82401 4.66324 4.35352 4.91387 4.09473 5.36299L1.18766 10.3989C0.801347 11.0678 1.03062 11.9227 1.6996 12.3103C1.91945 12.4378 2.16066 12.4981 2.3981 12.4981C2.88052 12.4981 3.351 12.2475 3.6098 11.7984L4.23292 10.718L4.66697 9.96606L5.35291 10.363L5.25931 10.5276C4.97225 11.1734 5.21911 11.9485 5.84475 12.3103C6.0646 12.4378 6.30581 12.4981 6.54325 12.4981C7.02567 12.4981 7.49615 12.2475 7.75495 11.7984L8.85923 9.88566L9.33662 9.05713L9.33976 9.05085L10.4861 9.72045L10.0628 9.47548L9.53072 10.3989C9.14441 11.0678 9.37243 11.9227 10.0414 12.3103C10.2625 12.4378 10.5025 12.4981 10.7399 12.4981C11.2236 12.4981 11.6941 12.2475 11.9529 11.7984L15.5383 5.58724L16.9906 6.42331C17.0917 6.48172 17.2174 6.40823 17.2174 6.29202L17.2105 0.151247Z" fill="#8066FF"/>
<path d="M6.12042 9.91792L4.69202 9.09316C4.65181 9.06992 4.60156 9.09882 4.60156 9.1453V10.7948C4.60156 10.8413 4.65181 10.8702 4.69202 10.847L6.12042 10.0222C6.16063 9.99958 6.16063 9.94116 6.12042 9.91792Z" fill="white"/>
<path d="M8.96765 8.83171C8.92745 8.85495 8.92745 8.91336 8.96765 8.93661L9.33826 9.1508L10.0631 9.56915L10.3961 9.76199C10.4363 9.78523 10.4865 9.75634 10.4865 9.70986V8.06034C10.4865 8.01386 10.4363 7.98496 10.3961 8.0082L8.96765 8.83171Z" fill="white"/>
<path d="M3.53597 15.3744H1.47628C1.39462 15.3744 1.32866 15.3085 1.32866 15.2268V14.2921C1.32866 14.2105 1.39462 14.1445 1.47628 14.1445H5.58751C5.66917 14.1445 5.73512 14.2105 5.73512 14.2921V15.1621C5.73512 15.2023 5.71879 15.2413 5.68927 15.2689L4.28975 16.6056C4.20684 16.6848 4.24201 16.8274 4.35382 16.8537C5.34253 17.0924 5.83751 17.686 5.83751 18.6352C5.83751 19.2627 5.62457 19.7765 5.19931 20.1766C4.77405 20.5774 4.2037 20.7771 3.48949 20.7771C2.48006 20.7771 1.66409 20.4379 1.0416 19.7583C0.987577 19.6992 0.992602 19.6057 1.05039 19.5504L1.82804 18.8098C1.88646 18.7539 1.97817 18.7589 2.03533 18.8173C2.47566 19.2671 2.96687 19.492 3.50834 19.492C3.78158 19.492 4.00332 19.4191 4.17417 19.2734C4.34943 19.1239 4.43485 18.9235 4.43046 18.6729C4.42732 18.5033 4.37267 18.3305 4.25834 18.2055C4.04289 17.97 3.67542 17.8525 3.15469 17.8525H2.67415C2.60631 17.8525 2.54727 17.806 2.53094 17.7401L2.35443 17.0202C2.34249 16.9706 2.35694 16.9178 2.39337 16.8814L3.64087 15.6263C3.73258 15.5327 3.66663 15.3744 3.53597 15.3744Z" fill="#8066FF" stroke="#8066FF" stroke-width="0.3"/>
<path d="M12.0205 15.4712H8.72399C8.64233 15.4712 8.57638 15.5371 8.57638 15.6188V16.7356C8.57638 16.8173 8.64233 16.8833 8.72399 16.8833H11.594C11.6757 16.8833 11.7416 16.9492 11.7416 17.0309V18.0623C11.7416 18.1439 11.6757 18.2099 11.594 18.2099H8.72399C8.64233 18.2099 8.57638 18.2759 8.57638 18.3575V20.6302C8.57638 20.7118 8.51042 20.7778 8.42876 20.7778H7.2648C7.18314 20.7778 7.11719 20.7118 7.11719 20.6302V14.2921C7.11719 14.2105 7.18314 14.1445 7.2648 14.1445H12.0205C12.1022 14.1445 12.1681 14.2105 12.1681 14.2921V15.3236C12.1681 15.4052 12.1022 15.4712 12.0205 15.4712Z" fill="#8066FF"/>
<path d="M19.7005 20.7778H18.5459C18.4643 20.7778 18.3983 20.7118 18.3983 20.6302V16.9392C18.3983 16.7928 18.208 16.7356 18.1276 16.8581L16.5315 19.2803H16.4938L14.9165 16.8864C14.8361 16.7639 14.6458 16.8211 14.6458 16.9674V20.6302C14.6458 20.7118 14.5798 20.7778 14.4981 20.7778H13.3625C13.2808 20.7778 13.2148 20.7118 13.2148 20.6302V14.2921C13.2148 14.2105 13.2808 14.1445 13.3625 14.1445H14.7061C14.7569 14.1445 14.8047 14.1709 14.8311 14.2143L16.4058 16.7476C16.4636 16.8405 16.5987 16.8405 16.6565 16.7476L18.2312 14.2143C18.2582 14.1709 18.3054 14.1445 18.3562 14.1445H19.6998C19.7815 14.1445 19.8475 14.2105 19.8475 14.2921V20.6302C19.8481 20.7118 19.7821 20.7778 19.7005 20.7778Z" fill="#8066FF"/>
</svg>
